<?xml version="1.0" encoding="UTF-8"?>
<svg width="985px" height="709px" viewBox="0 0 985 709" version="1.1" xmlns="http://www.w3.org/2000/svg" xmlns:xlink="http://www.w3.org/1999/xlink">
    <!-- Generator: Sketch 53.2 (72643) - https://sketchapp.com -->
    <title>Group 120</title>
    <desc>Created with Sketch.</desc>
    <defs>
        <polygon id="path-1" points="0.411481479 0.218746586 25.0867737 0.218746586 25.0867737 21.1862633 0.411481479 21.1862633"></polygon>
    </defs>
    <g id="Home" stroke="none" stroke-width="1" fill="none" fill-rule="evenodd" opacity="0.099999994">
        <g id="01-bloobirds-home" transform="translate(-695.000000, -4.000000)">
            <g id="Group-121" transform="translate(1250.500000, 243.000000) scale(1, -1) translate(-1250.500000, -243.000000) translate(594.000000, -227.000000)">
                <g id="Group-120">
                    <g id="Group-3" transform="translate(927.038478, 0.017305)">
                        <mask id="mask-2" fill="white">
                            <use xlink:href="#path-1"></use>
                        </mask>
                        <g id="Clip-2"></g>
                        <path d="M17.5765259,0.264356879 C19.6073582,7.71032994 23.9520786,12.8387068 25.0867737,21.1845252 C21.7840446,21.2673406 21.4700875,18.3650922 18.6506545,17.9670837 C14.0451274,21.9545852 3.43486297,20.3662592 0.411481479,15.2836163 C6.00337758,13.8436165 10.7077888,12.1774193 16.5036334,9.92038967 C16.3417107,6.68687946 14.1056939,5.52251913 14.3590844,1.87369568 C15.2267924,1.13206489 15.6804232,-0.0261151775 17.5765259,0.264356879" id="Fill-1" fill="#000000" mask="url(#mask-2)"></path>
                    </g>
                    <path d="M170.044196,243.386749 L170.044196,248.213529 C176.713929,248.921787 202.023315,244.873719 200.082715,251.969889 C198.616758,257.329408 183.262529,256.95612 176.480315,258.941218 C176.775731,260.862042 177.680521,264.190728 176.480315,265.91502 C173.604024,265.750625 173.17017,263.147501 170.580642,262.696342 C164.685914,269.498333 160.357262,277.862692 151.269813,281.471962 C149.947238,280.825507 148.905247,279.902176 148.051135,278.78973 C151.544216,268.871655 155.814773,259.732291 163.069158,253.577992 C161.252163,251.999554 157.820885,252.031692 156.096593,250.36055 C155.10528,244.755058 163.363339,241.339848 170.044196,243.386749" id="Fill-4" fill="#000000"></path>
                    <path d="M573.42237,247.67733 C572.83401,254.062771 570.835315,259.035406 565.913358,261.088487 C566.208775,263.00931 567.113564,266.336761 565.913358,268.061052 C564.093891,267.377516 562.506801,266.457894 561.085342,265.380057 C557.257291,267.630906 555.235111,271.687627 548.211868,270.743284 C547.549344,264.989465 554.780244,263.198426 556.795008,258.406255 C556.020004,256.855011 554.215369,256.334633 553.039884,255.188814 C553.725892,252.467029 556.693652,249.197673 558.940793,249.823115 C560.817119,250.270566 560.205273,253.207424 561.085342,254.649896 C566.73286,253.861295 567.281667,247.97151 573.42237,247.67733" id="Fill-6" fill="#000000"></path>
                    <path d="M907.06871,249.823486 C908.215765,256.804704 907.209619,265.97126 900.633827,266.98853 C900.680796,269.800547 901.52502,271.816547 901.171509,275.033988 C898.58569,274.576649 897.313793,272.810332 894.732918,272.352993 C892.192832,272.496375 891.710772,274.69531 889.903665,275.571671 C884.808662,275.481439 880.843409,274.257748 879.175976,270.743654 C879.802654,270.655895 879.629607,269.763466 879.713658,269.133079 C882.875477,267.466882 887.933399,267.69926 889.367219,264.306299 C889.017416,262.334797 887.390773,261.635192 886.148541,260.551175 C887.771477,257.702077 888.330172,253.791211 893.657553,254.64903 C894.192763,256.085322 894.765055,257.477116 894.732918,259.478283 C900.595509,258.5463 902.375423,253.53164 905.459371,249.823486 L907.06871,249.823486 Z" id="Fill-8" fill="#000000"></path>
                    <path d="M666.758211,284.152833 C667.534451,284.985932 667.886726,286.244232 668.366314,287.371511 C672.681369,286.875854 680.139702,283.968662 683.386809,287.371511 C682.475839,291.467785 677.105196,291.104386 673.732012,292.735974 C674.036081,294.360145 674.938398,297.157329 674.268459,298.101672 C671.565214,298.478668 670.580081,297.136316 668.901524,296.491097 C665.167413,299.123887 661.707705,304.518015 656.030522,303.463663 C657.648513,298.107853 661.09586,294.582634 664.075979,290.588952 C663.605044,288.914103 661.545782,288.828815 660.858538,287.371511 C661.344306,284.820301 663.666846,284.102155 666.758211,284.152833" id="Fill-12" fill="#000000"></path>
                    <path d="M1087.30168,314.192217 C1095.26185,317.705075 1083.92973,330.542704 1081.40324,334.575939 C1081.85316,336.629021 1082.10532,338.881106 1081.93969,341.548505 C1071.7744,335.130926 1064.75363,350.776864 1052.97159,345.840075 C1056.63401,339.310016 1063.89334,336.378102 1070.67308,332.965365 C1070.82017,330.851717 1068.37773,331.323888 1068.52729,329.210241 C1070.3035,326.697348 1073.02405,325.126327 1076.03878,323.847014 C1076.02642,325.111495 1076.96211,325.427924 1076.57399,327.065692 C1080.32169,322.947169 1083.60712,318.362654 1087.30168,314.192217" id="Fill-14" fill="#000000"></path>
                    <path d="M920.480608,350.130038 C921.061552,350.263532 920.841535,351.19675 921.5535,351.205403 C919.209947,358.873865 910.768953,360.449831 902.777881,362.468302 C902.61225,364.422499 902.865641,365.960147 903.314327,367.296319 C901.608577,366.856284 899.365143,366.953932 897.948629,366.223426 C892.407411,370.616352 888.133145,378.799012 878.639035,377.488798 C881.669833,370.149125 887.51512,365.622705 892.04772,359.786071 C892.310999,357.559943 888.955119,358.943084 888.831514,357.105076 C888.981076,353.40681 892.888235,351.52554 895.80408,352.277059 C896.558071,353.668853 896.549419,355.825763 897.418363,357.105076 C902.950928,352.63057 912.595837,352.262227 920.480608,350.130038" id="Fill-16" fill="#000000"></path>
                    <path d="M365.833363,361.93235 C365.974273,373.023439 351.826429,374.355902 343.303856,378.559713 C342.510311,382.161566 345.42492,383.257944 343.840302,386.06996 C340.561058,385.596553 339.155668,383.246819 336.866501,381.780862 C329.724596,384.4359 319.996872,393.632122 311.655998,388.216981 C314.847483,380.145566 322.952271,376.982511 330.429145,373.197722 C329.369849,371.03834 326.587498,370.60325 325.602365,368.367234 C326.903927,364.842015 330.620733,363.733277 335.257162,363.541689 C336.37826,365.101586 336.61311,367.550204 337.402947,369.443834 C346.34207,366.401912 354.62485,362.703646 365.833363,361.93235" id="Fill-18" fill="#000000"></path>
                    <path d="M969.827361,387.143965 C969.62094,397.130024 962.73737,400.435225 957.491569,405.37943 L957.491569,410.745129 C952.001029,404.767585 939.702318,413.763566 932.817512,406.990005 C936.840859,404.579705 941.741803,403.043293 947.301562,402.161989 C947.784858,400.384547 944.321442,399.834504 945.690987,398.944547 C945.975279,396.369852 948.536377,396.071964 951.055449,395.724633 C951.334797,397.410607 951.992376,398.717114 952.663552,400.018676 C957.749903,395.086831 963.361576,390.691433 969.827361,387.143965" id="Fill-20" fill="#000000"></path>
                    <path d="M904.387838,393.043638 C908.586704,400.451294 903.239546,411.313712 899.561058,416.110828 C899.805796,419.257814 901.014654,421.449333 901.170396,424.692732 C897.753951,423.635908 895.155771,421.764526 893.122466,419.328269 C886.393403,421.056269 876.099568,418.963634 872.201062,414.501489 C878.848546,415.065128 883.455309,413.596699 888.293214,412.355704 C885.576373,409.036906 886.299463,404.452392 892.048338,404.310246 C894.140973,404.360924 893.101453,407.546228 894.195359,408.599344 C897.865195,403.688512 902.829177,400.068118 904.387838,393.043638" id="Fill-22" fill="#000000"></path>
                    <path d="M567.521585,407.525586 C574.415043,406.055921 584.566732,402.588797 592.196877,405.379801 C590.365049,412.489568 581.0959,412.159542 573.422494,413.428967 C573.04797,415.771284 574.335935,416.447404 573.95894,418.79343 C571.75506,418.495541 570.49058,417.254546 568.059267,417.181619 C563.276984,421.00967 557.00526,432.260209 550.357776,427.372862 C552.205673,420.106116 556.733329,415.511714 561.621912,411.28071 C561.106478,409.651594 558.49841,410.115114 557.329106,409.136161 C557.844539,404.666599 567.59822,400.214343 567.521585,407.525586" id="Fill-24" fill="#000000"></path>
                    <path d="M1065.8458,430.592281 C1070.3166,434.168177 1076.44865,436.081585 1079.25696,441.318734 C1076.7898,442.342185 1075.75152,437.329997 1072.82084,437.0284 C1070.3784,437.527765 1073.09277,440.389224 1071.74671,441.318734 C1069.83331,440.551146 1066.93106,440.7724 1065.8458,439.176657 C1061.27489,442.648725 1058.26016,447.683162 1052.97109,450.439557 C1052.32835,444.070184 1058.34544,439.722992 1061.0215,434.885087 C1061.11049,433.542736 1060.19458,433.207766 1059.40968,432.738066 C1060.93497,431.400659 1063.67901,431.286942 1065.8458,430.592281" id="Fill-32" fill="#000000"></path>
                    <path d="M300.39211,461.169471 C301.514444,472.354499 290.753382,476.167718 283.76104,481.014275 C283.596645,484.520952 284.395134,485.654411 283.76104,488.524522 C279.940405,488.23405 278.250723,485.813862 275.716818,484.231716 C268.874038,486.074669 257.171104,486.355252 256.405988,478.86849 C260.235275,476.608988 264.552802,477.307357 269.279462,476.723941 C270.32269,475.989726 267.188064,474.91807 267.132441,473.504027 C267.91239,469.813178 272.054398,469.485624 276.78971,469.748903 C277.113556,471.034396 277.561006,472.196285 277.32492,474.041709 C285.273966,470.008474 290.935081,463.693488 300.39211,461.169471" id="Fill-34" fill="#000000"></path>
                    <path d="M828.217412,467.605096 C827.870082,469.740992 829.635163,469.759533 829.287833,471.897902 C837.154063,470.607464 846.425684,469.637164 853.966833,470.822537 C852.254902,477.696219 843.262629,477.287086 834.653532,477.261129 C833.274098,478.923618 834.989737,481.251102 834.117085,482.623119 C832.466957,481.951943 830.052949,482.040939 829.287833,480.47857 C824.000005,484.653951 819.346272,494.620233 811.052368,492.280388 C814.587475,485.443788 818.990289,479.478605 824.998735,475.11658 C824.993791,472.795275 822.469774,472.995515 821.780057,471.361456 C821.943216,468.125473 824.573533,467.359122 828.217412,467.605096" id="Fill-36" fill="#000000"></path>
                    <path d="M589.515882,471.898026 C589.831075,475.967106 588.266234,478.156153 587.370096,481.013904 C589.761856,483.273406 594.556499,483.126316 597.024893,485.304238 C596.95073,487.556323 592.730851,485.661457 591.660431,486.916049 C591.070834,490.009885 593.765426,489.817061 593.269769,492.815722 C590.39595,492.829318 588.693907,491.668666 586.297204,491.207619 C581.90675,496.118451 580.121892,503.627463 573.422494,506.226878 C572.158013,504.43584 573.355747,501.401334 573.95894,499.787051 C570.515301,491.250881 556.350153,490.578469 553.040008,483.698607 C556.434204,483.520616 557.257415,485.918555 560.549019,485.843156 C564.390667,479.764256 573.900845,481.35629 578.786956,477.261252 C580.641033,476.83605 581.051402,477.855793 582.005634,478.334145 C585.13408,476.810093 584.902938,471.933871 589.515882,471.898026" id="Fill-40" fill="#000000"></path>
                    <path d="M787.44935,483.698484 C791.068508,487.698346 790.192148,499.065074 786.377694,501.936421 C786.151496,505.022841 788.875753,505.158806 788.521007,508.37254 C779.475583,507.404712 772.275584,504.592695 763.31174,503.542051 C765.128736,502.679288 767.576117,502.443202 770.284306,502.471631 C771.877576,500.926567 768.94319,501.54212 769.213885,499.788164 C770.517919,498.411202 772.60561,497.82037 774.038194,496.571958 C776.353318,496.58061 776.017112,499.241829 778.333472,499.250481 C782.602793,495.302533 783.652201,488.124783 787.44935,483.698484" id="Fill-42" fill="#000000"></path>
                    <path d="M1039.56402,484.231963 C1040.40824,485.353062 1039.93112,487.795499 1040.6332,489.058744 C1046.85672,487.139156 1056.89716,487.958658 1062.09229,489.058744 C1059.57445,493.875636 1051.262,492.891739 1044.92477,493.887996 C1043.97548,494.902794 1044.53418,497.432991 1044.38709,499.249987 C1042.73201,499.120201 1041.35876,498.711068 1040.10046,498.179566 C1037.70129,502.399446 1039.73212,511.043152 1036.34287,514.272954 C1032.51605,509.490672 1036.98438,498.774107 1036.34287,493.350314 C1036.14139,491.645799 1034.02033,490.093319 1034.19832,488.52477 C1034.53205,485.601508 1037.00786,484.09229 1039.56402,484.231963" id="Fill-46" fill="#000000"></path>
                    <path d="M390.507295,530.900811 C391.25387,532.836467 392.042471,534.73257 393.189527,536.265274 C402.784993,536.209651 413.897094,533.985995 421.08226,538.408587 C420.8882,544.26747 408.511619,543.104345 402.307877,543.241547 C402.060667,545.986817 404.888752,545.665444 404.454898,548.601066 C401.563774,549.562714 398.500839,547.491092 396.406968,548.068327 C393.812497,548.780293 393.718557,551.366112 392.11787,553.43279 C387.92024,558.841751 381.023074,566.256822 374.415143,564.696926 C375.631418,554.112618 381.605254,548.2834 386.216961,541.09329 C384.435811,540.011745 380.979812,540.606286 379.241924,539.485187 C379.989735,533.613944 384.530987,531.538613 390.507295,530.900811" id="Fill-48" fill="#000000"></path>
                    <path d="M788.521254,542.703618 C794.671845,549.115016 789.176361,561.623855 784.23092,565.233125 C784.303847,567.66073 785.544842,568.923974 785.842731,571.130326 C779.292895,572.188385 777.385668,567.654549 774.038441,565.233125 C770.589858,562.731357 765.985567,563.344438 763.310752,559.868662 C767.635695,560.88964 769.524381,555.054242 775.111333,555.573384 C775.588449,556.530088 776.6119,556.937984 776.185462,558.797006 C781.824328,554.95783 787.044173,550.699634 788.521254,542.703618" id="Fill-50" fill="#000000"></path>
                    <path d="M874.348454,552.355448 C876.929329,552.282521 876.23096,555.481422 878.103578,556.111808 C886.417259,553.702744 893.232846,557.778005 899.024982,560.937352 C896.669068,564.334021 888.616194,561.983051 885.076143,561.47627 C883.554564,563.168425 886.922804,565.893918 885.612589,567.375943 C882.833946,567.471119 881.348212,566.27833 879.175234,565.769077 C876.730325,571.367153 874.468351,577.153109 867.911099,578.641315 C867.210258,572.352286 871.296643,566.324064 872.740351,560.402142 C872.746531,558.072185 869.599545,558.895395 868.985227,557.185936 C869.348626,554.153902 871.373278,552.783122 874.348454,552.355448" id="Fill-52" fill="#000000"></path>
                    <path d="M968.218269,563.086351 C970.467882,572.844976 957.874992,572.409886 959.097446,582.931155 C954.51046,577.848512 941.837226,578.048752 939.787853,572.202229 C942.196917,572.658332 944.362479,573.351757 947.301809,573.276358 C948.220195,570.046556 956.048108,564.826711 956.955369,571.130573 C961.350768,569.089852 964.48663,565.790831 968.218269,563.086351" id="Fill-54" fill="#000000"></path>
                    <path d="M678.022594,566.838014 C682.591039,570.340983 680.582456,579.753514 676.414491,581.860981 C676.486182,584.649513 678.468808,585.525873 678.022594,588.831075 C675.211813,587.886731 670.514818,588.828603 669.439453,586.151315 C665.098441,587.556706 656.107404,589.420671 652.275645,585.614869 C657.070288,585.403504 660.271661,583.597633 663.003334,581.323299 C663.162785,579.912964 660.92306,580.903042 661.393995,579.176278 C661.597944,576.33954 664.071282,575.777137 666.758458,575.42239 C668.171265,575.260467 668.142835,576.545961 668.366561,577.569411 C673.570337,575.978613 674.570302,570.181533 678.022594,566.838014" id="Fill-56" fill="#000000"></path>
                    <path d="M809.441175,571.666277 C809.525227,573.375736 810.65745,574.027135 810.515304,575.961556 C818.76471,576.289109 824.397396,579.242036 828.216794,584.004541 C822.713894,584.500198 821.198495,581.013297 815.877294,581.32231 C814.659784,582.851306 815.599183,585.346893 814.80811,586.151563 C812.835372,585.979751 811.837879,584.830224 809.980093,584.54346 C806.213845,588.642206 805.815837,596.116608 799.78885,597.954616 C799.733228,589.673073 802.679974,584.39637 805.688523,579.176525 C805.789879,576.577109 802.367253,577.491787 802.469846,574.884955 C803.819614,572.841762 805.899888,571.524131 809.441175,571.666277" id="Fill-58" fill="#000000"></path>
                    <path d="M730.589878,579.717545 C732.453843,580.173648 732.452607,582.501132 733.808555,583.466488 C739.762615,581.34666 748.188776,583.906523 753.121857,586.151192 C751.315986,590.424221 742.912073,586.639432 739.7107,587.759295 C738.49937,588.162247 739.499336,590.769079 739.174254,592.052101 L734.347474,592.052101 C732.057071,597.985147 731.305552,605.462021 726.299544,608.678227 C723.557982,603.34961 726.419441,592.787551 728.981775,587.759295 C729.195612,585.224153 726.047389,586.044891 725.226651,584.543089 C725.73714,581.653201 727.608522,580.130386 730.589878,579.717545" id="Fill-60" fill="#000000"></path>
                    <path d="M855.038737,594.73359 C854.698823,596.899152 851.487561,596.189659 849.139064,596.346637 C847.911665,597.087032 848.937588,600.078276 848.600146,601.706156 C846.893159,601.625812 846.24176,600.491117 844.307339,600.633263 C841.961314,603.651701 843.435923,610.490772 841.088662,613.507974 C838.229675,610.457399 838.174053,600.133899 840.018241,595.807719 C840.307477,593.371462 837.158019,594.373899 837.33601,592.051359 C837.443547,587.664613 843.465588,587.380321 843.773365,591.513677 C848.425862,591.689196 852.848454,592.094621 855.038737,594.73359" id="Fill-62" fill="#000000"></path>
                    <path d="M659.784904,590.443627 C660.61553,591.580794 661.327496,592.83415 661.931925,594.197515 C666.071461,593.399026 670.188748,591.766202 674.268953,593.662305 C674.221983,594.422476 674.179957,595.180176 674.804163,595.269171 C674.848661,599.424776 669.647357,598.338287 667.830362,600.633634 C667.45831,603.335642 668.738859,604.373925 668.365572,607.069753 C664.915753,607.302131 663.192697,605.810217 661.394243,604.389994 C657.519222,607.664294 653.504527,610.802628 645.838537,610.290903 C645.509747,602.627385 653.27833,603.067419 655.493334,597.953875 C654.258518,596.68445 652.201729,596.237 650.665317,595.269171 C651.147377,591.104915 655.052063,590.359576 659.784904,590.443627" id="Fill-64" fill="#000000"></path>
                    <path d="M880.247385,609.752108 C882.168209,609.97707 881.759076,612.533224 881.85796,614.580125 C888.287899,612.234099 900.35176,611.352795 907.068462,614.044914 C904.622317,619.823454 894.458267,617.885326 888.830525,620.481033 C889.097513,622.361068 889.631487,623.971642 889.366972,626.383178 C887.033307,626.393067 884.542663,626.559934 882.933325,625.843024 C878.525566,631.991143 878.325325,642.338129 871.665481,646.227982 C870.1884,636.503967 873.70991,627.191556 876.494733,619.944587 C875.708605,618.22524 873.215489,618.214115 871.129035,617.798802 C871.727284,612.672897 875.792656,611.019061 880.247385,609.752108" id="Fill-66" fill="#000000"></path>
                    <path d="M694.114251,621.555038 C694.981959,621.403004 695.038817,622.059347 695.724826,622.091485 C697.299555,632.023157 696.091933,643.459104 690.896809,648.376116 C691.441908,651.045987 692.762011,652.948269 692.506148,656.420338 C682.642459,652.045952 669.720779,652.806124 661.393501,646.227859 C665.833397,646.198193 670.676246,646.570245 673.731765,645.158674 C673.754014,643.166159 671.72071,643.23167 671.052006,641.939997 C671.841843,637.904289 675.040743,636.276409 679.094992,635.501405 C681.143129,636.674418 681.463266,639.571722 682.850116,641.402314 C687.135505,635.315998 691.68541,629.495432 694.114251,621.555038" id="Fill-68" fill="#000000"></path>
                    <path d="M712.888016,630.134965 C713.611106,631.380905 713.777973,633.181831 714.498591,634.427771 C723.018693,632.822141 737.215978,631.286965 743.462981,636.03711 C740.471737,643.488027 727.548821,639.598174 722.007603,640.866362 C720.523105,641.819358 723.807293,644.311237 722.007603,645.691907 C708.710163,641.385504 709.685407,661.664162 697.869993,662.320505 C693.8108,653.233056 703.510095,645.474362 706.989579,638.719341 C706.411107,637.150792 703.276481,638.140869 702.698009,636.571084 C702.765992,633.162055 707.696601,630.185643 712.888016,630.134965" id="Fill-70" fill="#000000"></path>
                    <path d="M533.727571,634.427277 C531.100962,637.317165 524.494268,636.056392 527.291452,643.011653 C525.036894,642.760735 522.014749,643.282348 521.390543,641.402314 C517.642836,643.910262 514.60833,647.13512 509.054751,647.838433 C507.023919,642.160014 513.792536,640.830023 515.49087,637.109508 C515.9136,634.900684 512.922356,636.10089 513.345085,633.89083 C513.761634,630.072668 519.653891,630.907003 520.854097,633.353148 C524.715521,632.213509 531.318507,631.375466 533.727571,634.427277" id="Fill-72" fill="#000000"></path>
                    <path d="M954.272891,634.963229 C953.010883,644.255862 942.417923,644.208892 934.962061,647.301493 L934.962061,652.665955 C932.250165,653.052839 930.905341,652.075123 929.598835,651.056617 C924.381462,656.565697 921.658441,664.572838 912.967764,666.611086 C910.467233,657.883328 919.798184,652.093664 923.697926,646.227364 C923.620055,644.163158 920.711626,644.924566 919.944038,643.547605 C922.407488,640.472309 925.427162,637.944584 930.131573,637.109014 C931.40965,638.159657 929.15262,640.112618 930.671727,641.40182 C938.48728,639.509425 945.402987,634.033718 954.272891,634.963229" id="Fill-74" fill="#000000"></path>
                    <path d="M759.021406,634.963229 C758.246402,644.73545 749.874627,646.915845 744.534885,652.128273 L744.534885,656.956289 C736.512912,651.297647 727.053411,662.909113 720.399747,655.348187 C722.592502,652.533698 727.047231,651.984891 731.1262,651.056617 C732.485857,649.747638 729.997686,649.914505 730.589754,647.837939 C732.692277,646.541321 735.500586,645.952961 737.566028,644.618025 C738.362045,645.254592 739.960259,645.084017 739.710577,646.766282 C746.382782,643.070489 750.847399,637.159692 759.021406,634.963229" id="Fill-76" fill="#000000"></path>
                    <path d="M528.365086,646.766035 C532.693738,649.557039 535.909943,657.455407 533.727077,663.394633 C534.319145,665.666496 536.672587,666.173277 536.410544,669.29307 C529.572708,667.634289 519.628676,673.683525 514.418719,668.220178 C517.426032,667.65283 520.571783,667.226393 522.464177,665.540419 C522.127971,664.445277 519.754753,665.388384 520.318392,663.394633 C520.172538,659.37005 524.810203,659.068454 526.754511,661.248848 C528.761859,657.455407 528.100571,650.896919 528.365086,646.766035" id="Fill-78" fill="#000000"></path>
                    <path d="M874.348454,660.176821 C879.316144,673.264132 862.775306,676.784406 864.692421,688.608473 C861.086859,690.3031 860.562774,686.004113 857.721092,684.313195 C852.549453,681.242843 843.002193,682.562946 841.088785,676.267737 C843.637523,676.938913 846.564493,677.233093 848.600269,678.413522 C851.173728,677.582896 857.264989,671.283978 859.327958,676.805419 C865.022447,671.947738 870.338703,666.716769 874.348454,660.176821" id="Fill-80" fill="#000000"></path>
                    <path d="M581.469435,666.610468 C587.214601,667.458399 592.314549,663.411567 596.488694,666.076494 C595.885501,670.296373 591.077262,670.321094 587.905554,671.974931 C587.554515,674.670759 588.579202,676.306055 587.905554,677.877076 C585.20849,677.894381 582.808078,677.611325 581.469435,676.266501 C577.186517,680.387496 573.855359,685.457778 566.986622,686.992954 C566.037334,679.926449 573.846706,677.081059 575.568526,670.903274 C575.187822,669.495412 573.051925,669.845214 572.349848,668.758725 C572.630432,664.705713 580.160456,661.813353 581.469435,666.610468" id="Fill-82" fill="#000000"></path>
                    <path d="M134.104521,668.759096 C134.336899,671.205242 133.563131,674.663713 134.640967,676.266872 C145.624519,674.065464 159.433684,670.417877 170.043949,673.58464 C170.45679,675.605584 169.388842,676.150683 169.507502,677.877447 C161.918147,683.408776 149.283231,684.670785 140.004194,686.993325 C140.234099,689.999402 141.05731,692.408466 138.932537,693.972071 C136.146478,694.513461 133.912933,691.616157 131.42229,691.286131 C122.90466,697.788997 116.284369,706.187966 103.52832,708.452412 C103.66923,706.702163 101.859651,706.904875 101.382535,705.767708 C106.009075,694.126577 116.045811,687.891934 125.522617,681.093652 C124.459613,678.224777 120.666171,678.082631 119.084026,675.731662 C120.542566,670.180555 127.466926,667.351234 134.104521,668.759096" id="Fill-84" fill="#000000"></path>
                    <path d="M671.585238,685.385469 C670.695281,686.284079 668.43578,685.813143 666.758458,685.924388 C665.538475,686.492971 666.555746,689.296336 666.21954,690.749932 C663.77463,690.438447 662.620158,690.413726 659.784657,689.678276 C656.341018,693.566893 654.409069,698.962257 649.592177,701.478857 C649.103937,695.577948 652.709499,689.253074 655.493086,684.849023 C654.812022,683.029556 652.517911,682.819427 652.275645,680.557453 C655.640177,677.064372 658.96021,678.202775 661.393995,681.634054 C664.788192,681.269419 669.85353,682.457264 671.585238,685.385469" id="Fill-86" fill="#000000"></path>
                </g>
            </g>
        </g>
    </g>
</svg>