<svg width="32" height="32" viewBox="0 0 16 16" fill="none" xmlns="http://www.w3.org/2000/svg">
<path fill-rule="evenodd" clip-rule="evenodd" d="M15.3446 0.654794C15.113 0.423175 14.7374 0.423174 14.5058 0.654793L13.6323 1.52833C12.2425 0.537948 10.3007 0.66616 9.05392 1.91297L7.79538 3.17151L6.95633 2.33245C6.72471 2.10083 6.34918 2.10083 6.11756 2.33245C5.88594 2.56407 5.88594 2.9396 6.11756 3.17122L7.79509 4.84875L6.11764 6.52621C5.88602 6.75783 5.88602 7.13336 6.11764 7.36498C6.34926 7.5966 6.72479 7.5966 6.95641 7.36498L8.63386 5.68752L10.3115 7.36517L8.63424 9.04244C8.40262 9.27406 8.40262 9.64959 8.63424 9.88121C8.86586 10.1128 9.24139 10.1128 9.47301 9.88121L11.1503 8.20394L12.8277 9.88136C13.0593 10.113 13.4348 10.113 13.6665 9.88136C13.8981 9.64974 13.8981 9.27421 13.6665 9.04259L12.828 8.20411L14.0865 6.94557C15.3334 5.69873 15.4616 3.75683 14.4711 2.36708L15.3446 1.49356C15.5762 1.26194 15.5762 0.886413 15.3446 0.654794ZM13.238 6.09704L11.9923 7.34275L8.65675 4.0072L9.90245 2.76149C10.8235 1.84041 12.3169 1.84041 13.238 2.7615C14.1591 3.68258 14.1591 5.17596 13.238 6.09704ZM2.34403 6.94522C2.11241 6.7136 2.11241 6.33807 2.34403 6.10645C2.57564 5.87483 2.95117 5.87483 3.18279 6.10645L9.89293 12.8166C10.1245 13.0482 10.1245 13.4237 9.89293 13.6554C9.66131 13.887 9.28578 13.887 9.05416 13.6554L8.21517 12.8164L6.95656 14.075C5.70978 15.3218 3.76802 15.45 2.37828 14.4597L1.50467 15.3333C1.27305 15.5649 0.897521 15.5649 0.665902 15.3333C0.434283 15.1016 0.434283 14.7261 0.665902 14.4945L1.53947 13.6209C0.548933 12.2312 0.677099 10.2892 1.92396 9.04236L3.18256 7.78376L2.34403 6.94522ZM2.77249 9.89089L4.01881 8.64458L7.35435 11.9801L6.10804 13.2264C5.18695 14.1475 3.69358 14.1475 2.77249 13.2264C1.85141 12.3054 1.85141 10.812 2.77249 9.89089Z" fill="#1991FF"/>
</svg>
