<svg width="100%" height="100%" viewBox="0 0 72 72" version="1.1" xmlns="http://www.w3.org/2000/svg" xmlns:xlink="http://www.w3.org/1999/xlink" xml:space="preserve" xmlns:serif="http://www.serif.com/" style="fill-rule:evenodd;clip-rule:evenodd;stroke-linejoin:round;stroke-miterlimit:2;">
    <g transform="matrix(1.72222,0,0,1.72222,5,8.44444)">
        <path d="M20.111,2.708L34.17,26.891C35.094,28.481 33.95,30.5 32.059,30.5L3.941,30.5C2.05,30.5 0.906,28.481 1.83,26.891L15.889,2.708C16.825,1.097 19.175,1.097 20.111,2.708ZM14.592,1.954C16.107,-0.651 19.893,-0.651 21.408,1.954L35.467,26.137C36.982,28.743 35.088,32 32.059,32L3.941,32C0.912,32 -0.982,28.743 0.533,26.137L14.592,1.954ZM12.529,25.53C14.448,23.612 16.268,22.75 17.999,22.75C19.73,22.75 21.55,23.612 23.469,25.53C23.762,25.823 24.237,25.823 24.529,25.53C24.822,25.237 24.822,24.763 24.529,24.47C22.448,22.388 20.268,21.25 17.999,21.25C15.73,21.25 13.55,22.388 11.469,24.47C11.176,24.763 11.176,25.237 11.469,25.53C11.762,25.823 12.237,25.823 12.529,25.53ZM16,15.75C16,16.717 15.217,17.5 14.25,17.5C13.284,17.5 12.5,16.717 12.5,15.75C12.5,14.784 13.284,14 14.25,14C15.217,14 16,14.784 16,15.75ZM21.75,17.5C22.717,17.5 23.5,16.717 23.5,15.75C23.5,14.784 22.717,14 21.75,14C20.784,14 20,14.784 20,15.75C20,16.717 20.784,17.5 21.75,17.5Z" style="fill:rgb(25,145,255);"/>
    </g>
</svg>
