<svg width="48" height="48" viewBox="0 0 48 48" fill="none" xmlns="http://www.w3.org/2000/svg">
<path fill-rule="evenodd" clip-rule="evenodd" d="M35.5262 4.14739C35.0479 3.87124 34.4363 4.03512 34.1602 4.51341L31.8585 8.49999H31.8581L30.7034 10.5H30.7038L20.0913 28.8813V28.8807L18.0913 32.3448V32.3454L12.2496 42.4636C11.9735 42.9419 12.1373 43.5535 12.6156 43.8296C13.0939 44.1058 13.7055 43.9419 13.9817 43.4636L35.8922 5.51341C36.1684 5.03512 36.0045 4.42353 35.5262 4.14739ZM7.63878 8.49999H29.5487L28.394 10.5H7.63878C7.0571 10.5 6.83635 11.1209 7.14591 11.4789L19.5486 25.8207L18.0913 28.3448V27.1931L5.63313 12.7871C4.14412 11.0653 5.43511 8.49999 7.63878 8.49999ZM20.435 37.2309C20.2668 37.1486 20.1544 37.0057 20.1112 36.8463L19.0423 38.6976C19.1984 38.8256 19.3706 38.9367 19.5565 39.0276L26.1008 42.2274C27.8203 43.0681 29.9078 41.8629 29.9078 39.898V27.1931L42.366 12.7871C43.855 11.0653 42.564 8.49999 40.3603 8.49999H36.4769L35.3222 10.5H40.3603C40.942 10.5 41.1628 11.1209 40.8532 11.4789L27.9078 26.4483V39.898C27.9078 40.3118 27.4355 40.6537 26.9793 40.4307L20.435 37.2309Z" fill="#C5D1DD"/>
</svg>
