<svg xmlns="http://www.w3.org/2000/svg" width="24" height="24" viewBox="0 0 24 24">
    <g fill="none" fill-rule="evenodd">
        <path fill="#FBBC05" d="M7.276 12c0-.508.084-.995.235-1.452L4.874 8.535A7.819 7.819 0 0 0 4.071 12c0 1.246.29 2.42.802 3.463l2.635-2.017A4.628 4.628 0 0 1 7.276 12"/>
        <path fill="#EA4335" d="M11.905 7.378c1.103 0 2.1.39 2.884 1.03l2.278-2.275c-1.388-1.209-3.169-1.955-5.162-1.955a7.81 7.81 0 0 0-7.03 4.357l2.636 2.013a4.616 4.616 0 0 1 4.394-3.17"/>
        <path fill="#34A853" d="M11.905 16.622a4.616 4.616 0 0 1-4.394-3.17l-2.637 2.013a7.81 7.81 0 0 0 7.03 4.357c1.911 0 3.735-.678 5.104-1.95l-2.502-1.934c-.706.445-1.595.684-2.601.684"/>
        <path fill="#4285F4" d="M19.382 12c0-.462-.071-.96-.178-1.422h-7.3V13.6h4.202c-.21 1.03-.782 1.823-1.6 2.338l2.502 1.935c1.438-1.335 2.374-3.323 2.374-5.873"/>
    </g>
</svg>
