<svg xmlns="http://www.w3.org/2000/svg" viewBox="0 0 32 40">
    <g fill-rule="evenodd">
        <path d="M25.6 12.062a2.464 2.464 0 1 0 4.925 0 2.464 2.464 0 0 0-4.925 0"/>
        <path d="M19.782 16.3c6.58 0 11.806 5.553 11.378 12.163-.386 5.977-5.617 10.643-11.782 10.643H1.859a1.47 1.47 0 0 1-1.469-1.47V1.86C.39 1.049 1.048.39 1.86.39h14.4c4.254 0 7.864 3.246 8.043 7.344a7.678 7.678 0 0 1-6.459 7.927.39.39 0 0 0-.328.408l.002.028a.39.39 0 0 0 .45.362 11.42 11.42 0 0 1 1.814-.159z"/>
    </g>
</svg>
