<?xml version="1.0" encoding="UTF-8"?>
<svg width="140px" height="138px" viewBox="0 0 140 138" version="1.1" xmlns="http://www.w3.org/2000/svg" xmlns:xlink="http://www.w3.org/1999/xlink">
    <!-- Generator: sketchtool 58 (101010) - https://sketch.com -->
    <title>F3B3B95D-6D61-4EEC-9C1F-51EA5A4881E0</title>
    <desc>Created with sketchtool.</desc>
    <g id="ðŸ’…ðŸ»-Sprint-#Moderna" stroke="none" stroke-width="1" fill="none" fill-rule="evenodd">
        <g id="20.0-Permissions-you-don't-have" transform="translate(-687.000000, -160.000000)" fill="#9ACFFF" fill-rule="nonzero">
            <path d="M747.494651,168.558077 C748.887782,173.207644 747.342089,178.238476 743.578542,181.304003 C739.814994,184.36953 734.575033,184.865826 730.302775,182.561398 C726.030517,180.256971 723.567622,175.605807 724.062878,170.777385 C724.558133,165.948963 727.913971,161.89451 732.565101,160.505178 C738.911466,158.609464 745.593754,162.213846 747.494651,168.558077 L747.494651,168.558077 Z M687.31138,229.320351 C686.14161,225.433471 688.369485,221.341859 692.288106,220.180327 L718.329109,212.46081 L724.231737,187.752613 C727.150908,189.752832 730.558882,190.937324 734.098384,191.181916 L729.758217,209.045856 L760.790413,199.834089 L747.321427,187.236065 C750.139701,185.103563 752.32826,182.258981 753.658071,179 L772.320791,196.433484 L798.361794,188.713966 C802.280824,187.553791 806.406278,189.76339 807.577416,193.649866 L826.68862,257.07044 C827.85839,260.95732 825.630515,265.048932 821.711894,266.210464 L715.66714,297.691174 C711.748111,298.851348 707.622657,296.641749 706.451518,292.755274 L687.31138,229.320351 Z M734.043011,240.920182 L745.859334,247.31877 L739.488565,259.18669 C737.537297,263.136605 739.055428,267.929046 742.92042,270.020385 C746.785412,272.111724 751.605311,270.748777 753.816188,266.939335 L760.186958,255.071415 L772.003281,261.470003 C775.960023,263.608096 780.893304,262.122838 783.026563,258.151234 L783.026563,258.151234 C785.155361,254.177215 783.67656,249.222393 779.722222,247.079818 L767.905898,240.68123 L774.276668,228.81331 C776.227936,224.863395 774.709805,220.070954 770.844813,217.979615 C766.979821,215.888276 762.159922,217.251223 759.949045,221.060665 L753.578275,232.928585 L741.761952,226.529997 C737.829208,224.570209 733.057603,226.094968 730.975356,229.976837 C728.893109,233.858706 730.25013,238.699651 734.043011,240.920182 L734.043011,240.920182 Z" id="Shape"></path>
        </g>
    </g>
</svg>