<svg width="48" height="48" viewBox="0 0 48 48" fill="none" xmlns="http://www.w3.org/2000/svg">
    <path d="M0 0H48V48H0V0Z" fill="white"/>
    <mask id="mask0" maskUnits="userSpaceOnUse" x="8" y="5" width="32" height="39">
        <path fill-rule="evenodd" clip-rule="evenodd" d="M22.25 7.5C22.25 7.37478 22.3159 7.20423 22.5358 7.03934C22.7559 6.87427 23.0943 6.75 23.5 6.75C23.9057 6.75 24.2441 6.87427 24.4642 7.03934C24.6841 7.20423 24.75 7.37478 24.75 7.5V8.25H22.25V7.5ZM23.5 5.25C22.8011 5.25 22.1396 5.46151 21.6358 5.83934C21.1318 6.21734 20.75 6.79679 20.75 7.5V8.64884C18.7122 9.1329 16.5583 10.1556 14.7969 11.8232C12.1753 14.3052 10.4792 18.1639 11.2548 23.6191C11.7421 28.9952 11.0042 32.748 10.1673 35.1343C9.74781 36.3303 9.30182 37.1877 8.96812 37.7379C8.8012 38.0131 8.66221 38.2117 8.56843 38.3376C8.52154 38.4006 8.48595 38.4454 8.46382 38.4725C8.45275 38.486 8.44505 38.4951 8.44099 38.4999L8.43923 38.502L8.4378 38.5036C8.24308 38.7241 8.19521 39.0383 8.31568 39.3069C8.43658 39.5765 8.70453 39.75 9.00001 39.75H19.2572C19.3866 41.9809 21.2367 43.75 23.5 43.75C25.7633 43.75 27.6134 41.9809 27.7428 39.75H38C38.2955 39.75 38.5634 39.5765 38.6844 39.3069C38.8048 39.0383 38.757 38.7241 38.5622 38.5036L38.5612 38.5024L38.559 38.4999C38.555 38.4951 38.5473 38.486 38.5362 38.4725C38.5141 38.4454 38.4785 38.4006 38.4316 38.3376C38.3378 38.2117 38.1988 38.0131 38.0319 37.7379C37.6982 37.1877 37.2522 36.3303 36.8327 35.1343C35.9958 32.748 35.258 28.9952 35.7452 23.6191C36.0577 21.4214 35.9708 19.4826 35.5845 17.7886C38.1293 17.0936 40 14.7653 40 12C40 8.68629 37.3137 6 34 6C31.6082 6 29.5433 7.39949 28.5794 9.42427C27.8053 9.08441 27.0198 8.82666 26.25 8.64532V7.5C26.25 6.79679 25.8682 6.21734 25.3642 5.83934C24.8604 5.46151 24.1989 5.25 23.5 5.25ZM28 12C28 11.6091 28.0374 11.2269 28.1088 10.8569C26.5307 10.1409 24.8918 9.81226 23.5 9.81226C21.1707 9.81225 18.1117 10.7505 15.8281 12.9125C13.5778 15.043 12.0248 18.4131 12.7424 23.4259C12.7443 23.4386 12.7458 23.4513 12.7469 23.4641C13.2562 29.0551 12.4948 33.0302 11.5827 35.6307C11.1869 36.7595 10.7638 37.6258 10.4071 38.25H36.5929C36.2362 37.6258 35.8132 36.7595 35.4173 35.6307C34.5052 33.0302 33.7438 29.0551 34.2531 23.4641C34.2543 23.4513 34.2558 23.4386 34.2576 23.4259C34.5558 21.3429 34.4638 19.5437 34.0935 17.9993C34.0624 17.9998 34.0312 18 34 18C30.6863 18 28 15.3137 28 12ZM23.5 42.25C22.0655 42.25 20.8875 41.1516 20.7612 39.75H26.2388C26.1125 41.1516 24.9345 42.25 23.5 42.25ZM27.2025 26.655C27.0465 26.447 26.7703 26.3696 26.5289 26.4661C25.3142 26.9521 24.3909 27.175 23.4925 27.175C22.5941 27.175 21.6708 26.9521 20.4561 26.4661C20.2147 26.3696 19.9386 26.447 19.7826 26.655C19.335 27.2517 19.1406 27.8887 19.1929 28.5165C19.2446 29.1374 19.5324 29.6901 19.9435 30.1385C20.7557 31.0246 22.1062 31.575 23.4924 31.575C24.8785 31.575 26.229 31.0246 27.0412 30.1385C27.4523 29.6901 27.7402 29.1374 27.792 28.5165C27.8443 27.8887 27.65 27.2517 27.2025 26.655ZM20.3389 28.421C20.3211 28.2072 20.357 27.968 20.4805 27.7077C21.5714 28.1101 22.5223 28.325 23.4925 28.325C24.4627 28.325 25.4136 28.1101 26.5045 27.7077C26.6279 27.968 26.6638 28.2072 26.646 28.421C26.6196 28.7376 26.47 29.0599 26.1935 29.3615C25.6307 29.9754 24.6062 30.425 23.4924 30.425C22.3785 30.425 21.354 29.9754 20.7912 29.3615C20.5148 29.0599 20.3653 28.7376 20.3389 28.421ZM19.75 21C19.3802 21 18.75 21.317 18.75 22.5C18.75 22.9142 18.4142 23.25 18 23.25C17.5858 23.25 17.25 22.9142 17.25 22.5C17.25 20.683 18.3698 19.5 19.75 19.5C21.1302 19.5 22.25 20.683 22.25 22.5C22.25 22.9142 21.9142 23.25 21.5 23.25C21.0858 23.25 20.75 22.9142 20.75 22.5C20.75 21.317 20.1198 21 19.75 21ZM26.25 22.5C26.25 21.317 26.8802 21 27.25 21C27.6198 21 28.25 21.317 28.25 22.5C28.25 22.9142 28.5858 23.25 29 23.25C29.4142 23.25 29.75 22.9142 29.75 22.5C29.75 20.683 28.6302 19.5 27.25 19.5C25.8698 19.5 24.75 20.683 24.75 22.5C24.75 22.9142 25.0858 23.25 25.5 23.25C25.9142 23.25 26.25 22.9142 26.25 22.5ZM33.9898 8.54999C35.8598 8.54999 36.6698 10.3 36.6698 11.99C36.6698 13.67 35.8598 15.44 33.9898 15.44C32.1198 15.44 31.3198 13.67 31.3198 11.99C31.3198 10.3 32.1198 8.54999 33.9898 8.54999ZM33.9898 14.38C35.0698 14.38 35.4498 13.26 35.4498 11.99C35.4498 10.72 35.0698 9.60999 33.9898 9.60999C32.9198 9.60999 32.5298 10.72 32.5298 11.99C32.5298 13.26 32.9198 14.38 33.9898 14.38Z" fill="#C4C4C4"/>
    </mask>
    <g mask="url(#mask0)">
        <rect width="48" height="48" fill="#C5D1DD"/>
    </g>
</svg>
