<svg width="48" height="48" viewBox="0 0 48 48" fill="none" xmlns="http://www.w3.org/2000/svg">
<path fill-rule="evenodd" clip-rule="evenodd" d="M34.292 16C32.768 9.143 26.637 4 19.328 4C10.876 4 4 10.876 4 19.328C4 27.78 10.876 34.656 19.327 34.656C23.234 34.656 26.802 33.184 29.512 30.769L31.392 32.649C30.561 34.059 30.746 35.907 31.956 37.116L37.722 42.883C38.439 43.599 39.381 43.958 40.323 43.958C41.265 43.958 42.207 43.6 42.924 42.883C44.359 41.449 44.359 39.115 42.924 37.68L39.613 34.369C39.266 34.022 38.703 34.022 38.356 34.369C38.009 34.716 38.009 35.279 38.356 35.626L41.667 38.937C42.408 39.678 42.408 40.885 41.667 41.626C40.926 42.367 39.72 42.367 38.979 41.626L33.213 35.86C32.48 35.127 32.474 33.943 33.189 33.2C33.191 33.198 33.193 33.198 33.195 33.196C33.2 33.191 33.204 33.185 33.209 33.179C33.212 33.175 33.215 33.171 33.219 33.166C33.849 32.542 34.844 32.437 35.588 32.918C35.7 32.991 35.806 33.076 35.9 33.171L36.708 33.978C36.881 34.151 37.108 34.238 37.336 34.238C37.564 34.238 37.791 34.151 37.965 33.978C38.312 33.63 38.312 33.067 37.965 32.72L37.158 31.914C36.976 31.731 36.773 31.566 36.556 31.425C35.356 30.649 33.823 30.66 32.638 31.381L30.769 29.512C31.47 28.726 32.092 27.867 32.621 26.948C32.661 26.878 32.701 26.807 32.741 26.736C33.26 25.801 33.684 24.806 34 23.764C34.426 22.36 34.655 20.87 34.655 19.328C34.655 18.881 34.636 18.438 34.598 18C34.597 17.985 34.596 17.971 34.595 17.956C34.535 17.291 34.433 16.638 34.292 16ZM32.597 16.575C31.321 10.419 25.856 5.778 19.328 5.778C11.857 5.778 5.778 11.856 5.778 19.328C5.778 26.799 11.857 32.878 19.328 32.878C25.11 32.878 30.058 29.237 32 24.128C32.565 22.642 32.875 21.031 32.878 19.35C32.878 19.343 32.878 19.337 32.878 19.33C32.878 19.329 32.878 19.329 32.878 19.328C32.878 18.394 32.783 17.482 32.602 16.601C32.6 16.592 32.599 16.584 32.597 16.575ZM38 27.5H34.032C34.391 26.858 34.708 26.19 34.982 25.5H38V18H36.104C36.05 17.321 35.957 16.654 35.825 16H38C39.105 16 40 16.895 40 18V25.5C40 26.605 39.105 27.5 38 27.5ZM26.053 11.667C25.86 11.667 25.667 11.605 25.503 11.476C23.726 10.075 21.59 9.334 19.327 9.334C18.836 9.334 18.438 8.935 18.438 8.445C18.438 7.954 18.836 7.556 19.327 7.556C21.993 7.556 24.51 8.429 26.604 10.08C26.989 10.384 27.056 10.943 26.752 11.328C26.576 11.551 26.316 11.667 26.053 11.667ZM28.553 15.482C28.257 14.776 27.878 14.101 27.426 13.477C27.138 13.08 27.227 12.524 27.624 12.236C28.021 11.948 28.578 12.037 28.866 12.434C29.398 13.169 29.845 13.963 30.193 14.796C30.382 15.249 30.169 15.769 29.716 15.959C29.604 16.006 29.487 16.028 29.373 16.028C29.025 16.028 28.696 15.822 28.553 15.482ZM12 16C10.895 16 10 16.895 10 18V25.5C10 26.605 10.895 27.5 12 27.5H16C17.105 27.5 18 26.605 18 25.5V18C18 16.895 17.105 16 16 16H12ZM12 18H16V25.5H12V18ZM22 16C20.895 16 20 16.895 20 18V25.5C20 26.605 20.895 27.5 22 27.5H26C27.105 27.5 28 26.605 28 25.5V18C28 16.895 27.105 16 26 16H22ZM22 18H26V25.5H22V18Z" />
</svg>
