<svg width="80" height="80" viewBox="0 0 80 80" fill="none" xmlns="http://www.w3.org/2000/svg">
<path fill-rule="evenodd" clip-rule="evenodd" d="M61.11 27.14C61.242 28.294 61.31 29.468 61.31 30.656C61.31 30.77 61.31 30.886 61.308 31C61.262 35.264 60.338 39.32 58.712 43C58.71 43.004 58.708 43.008 58.706 43.012C58.092 44.398 57.378 45.73 56.574 47C55.672 48.424 54.656 49.77 53.538 51.024L57.276 54.762C59.646 53.32 62.712 53.298 65.112 54.85C65.546 55.132 65.952 55.462 66.316 55.828L67.93 57.44C68.624 58.134 68.624 59.26 67.93 59.956C67.582 60.302 67.128 60.476 66.672 60.476C66.216 60.476 65.762 60.302 65.416 59.956L63.8 58.342C63.612 58.152 63.4 57.982 63.176 57.836C61.688 56.874 59.698 57.084 58.438 58.332C58.43 58.342 58.424 58.35 58.418 58.358C58.408 58.37 58.4 58.382 58.39 58.392C58.386 58.396 58.382 58.396 58.378 58.4C56.948 59.886 56.96 62.254 58.426 63.72L69.958 75.252C71.44 76.734 73.852 76.734 75.334 75.252C76.816 73.77 76.816 71.356 75.334 69.874L68.712 63.252C68.018 62.558 68.018 61.432 68.712 60.738C69.406 60.044 70.532 60.044 71.226 60.738L77.848 67.36C80.718 70.23 80.718 74.898 77.848 77.766C76.414 79.2 74.53 79.916 72.646 79.916C70.762 79.916 68.878 79.198 67.444 77.766L55.912 66.232C53.492 63.814 53.122 60.118 54.784 57.298L51.024 53.538C45.604 58.368 38.468 61.312 30.654 61.312C13.752 61.312 0 47.56 0 30.656C0 13.752 13.752 0 30.656 0C46.37 0 59.362 11.886 61.11 27.14ZM57.51 27C57.672 28.196 57.756 29.416 57.756 30.656C57.756 35.1 56.68 39.296 54.778 43C54.08 44.356 53.272 45.648 52.364 46.86C52.33 46.906 52.294 46.954 52.26 47C47.306 53.53 39.466 57.756 30.656 57.756C15.714 57.756 3.556 45.598 3.556 30.656C3.556 15.712 15.714 3.556 30.656 3.556C44.358 3.556 55.72 13.78 57.51 27ZM43.008 14.952C43.336 15.21 43.722 15.334 44.108 15.334C44.634 15.334 45.154 15.102 45.504 14.656C46.114 13.886 45.98 12.768 45.21 12.16C41.022 8.858 35.988 7.112 30.656 7.112C29.674 7.112 28.878 7.908 28.878 8.89C28.878 9.87 29.674 10.668 30.656 10.668C35.182 10.668 39.454 12.15 43.008 14.952ZM46.852 18.954C47.756 20.202 48.514 21.552 49.106 22.964C49.392 23.644 50.05 24.056 50.746 24.056C50.974 24.056 51.208 24.012 51.432 23.918C52.338 23.538 52.764 22.498 52.386 21.592C51.69 19.926 50.796 18.338 49.732 16.868C49.156 16.074 48.042 15.896 47.248 16.472C46.454 17.048 46.276 18.16 46.852 18.954ZM70 27H64.114C64.244 28.202 64.31 29.42 64.31 30.656C64.31 30.77 64.31 30.886 64.31 31H70V43H61.964C61.416 44.38 60.782 45.716 60.064 47H70C72.21 47 74 45.21 74 43V31C74 28.79 72.21 27 70 27ZM54.756 30.656C54.756 30.772 54.754 30.886 54.754 31H18V43H51.346C50.486 44.436 49.48 45.776 48.35 47H18C15.79 47 14 45.21 14 43V31C14 28.79 15.79 27 18 27H54.478C54.662 28.192 54.756 29.414 54.756 30.656Z" fill="#C5D1DD"/>
</svg>
