<svg width="48" height="48" viewBox="0 0 48 48" fill="none" xmlns="http://www.w3.org/2000/svg">
<path fill-rule="evenodd" clip-rule="evenodd" d="M34.555 17.57C34.621 18.147 34.655 18.734 34.655 19.328C34.655 19.385 34.655 19.443 34.654 19.5C34.631 21.632 34.169 23.66 33.356 25.5C33.355 25.502 33.354 25.504 33.353 25.506C33.046 26.199 32.689 26.865 32.287 27.5C31.836 28.212 31.328 28.885 30.769 29.512L32.638 31.381C33.823 30.66 35.356 30.649 36.556 31.425C36.773 31.566 36.976 31.731 37.158 31.914L37.965 32.72C38.312 33.067 38.312 33.63 37.965 33.978C37.791 34.151 37.564 34.238 37.336 34.238C37.108 34.238 36.881 34.151 36.708 33.978L35.9 33.171C35.806 33.076 35.7 32.991 35.588 32.918C34.844 32.437 33.849 32.542 33.219 33.166C33.215 33.171 33.212 33.175 33.209 33.179C33.204 33.185 33.2 33.191 33.195 33.196C33.193 33.198 33.191 33.198 33.189 33.2C32.474 33.943 32.48 35.127 33.213 35.86L38.979 41.626C39.72 42.367 40.926 42.367 41.667 41.626C42.408 40.885 42.408 39.678 41.667 38.937L38.356 35.626C38.009 35.279 38.009 34.716 38.356 34.369C38.703 34.022 39.266 34.022 39.613 34.369L42.924 37.68C44.359 39.115 44.359 41.449 42.924 42.883C42.207 43.6 41.265 43.958 40.323 43.958C39.381 43.958 38.439 43.599 37.722 42.883L31.956 37.116C30.746 35.907 30.561 34.059 31.392 32.649L29.512 30.769C26.802 33.184 23.234 34.656 19.327 34.656C10.876 34.656 4 27.78 4 19.328C4 10.876 10.876 4 19.328 4C27.185 4 33.681 9.943 34.555 17.57ZM32.755 17.5C32.836 18.098 32.878 18.708 32.878 19.328C32.878 21.55 32.34 23.648 31.389 25.5C31.04 26.178 30.636 26.824 30.182 27.43C30.165 27.453 30.147 27.477 30.13 27.5C27.653 30.765 23.733 32.878 19.328 32.878C11.857 32.878 5.778 26.799 5.778 19.328C5.778 11.856 11.857 5.778 19.328 5.778C26.179 5.778 31.86 10.89 32.755 17.5ZM25.504 11.476C25.668 11.605 25.861 11.667 26.054 11.667C26.317 11.667 26.577 11.551 26.752 11.328C27.057 10.943 26.99 10.384 26.605 10.08C24.511 8.429 21.994 7.556 19.328 7.556C18.837 7.556 18.439 7.954 18.439 8.445C18.439 8.935 18.837 9.334 19.328 9.334C21.591 9.334 23.727 10.075 25.504 11.476ZM27.426 13.477C27.878 14.101 28.257 14.776 28.553 15.482C28.696 15.822 29.025 16.028 29.373 16.028C29.487 16.028 29.604 16.006 29.716 15.959C30.169 15.769 30.382 15.249 30.193 14.796C29.845 13.963 29.398 13.169 28.866 12.434C28.578 12.037 28.021 11.948 27.624 12.236C27.227 12.524 27.138 13.08 27.426 13.477ZM39 17.5H36.057C36.122 18.101 36.155 18.71 36.155 19.328C36.155 19.385 36.155 19.443 36.155 19.5H39V25.5H34.982C34.708 26.19 34.391 26.858 34.032 27.5H39C40.105 27.5 41 26.605 41 25.5V19.5C41 18.395 40.105 17.5 39 17.5ZM31.378 19.328C31.378 19.386 31.377 19.443 31.377 19.5H13V25.5H29.673C29.243 26.218 28.74 26.888 28.175 27.5H13C11.895 27.5 11 26.605 11 25.5V19.5C11 18.395 11.895 17.5 13 17.5H31.239C31.331 18.096 31.378 18.707 31.378 19.328Z" fill="#1991FF"/>
</svg>
