<svg xmlns="http://www.w3.org/2000/svg" width="60" height="60" viewBox="0 0 60 60">
    <g fill="#C5D1DD" fill-rule="evenodd">
        <path d="M22.99.031c12.677 0 22.99 10.314 22.99 22.991 0 5.86-2.206 11.211-5.828 15.275l2.803 2.804c1.777-1.082 4.077-1.098 5.876.066.326.212.63.458.904.733l1.21 1.21a1.334 1.334 0 0 1-1.886 1.886l-1.211-1.21c-.142-.143-.3-.27-.468-.38a2.864 2.864 0 0 0-3.554.373c-.013.014-.022.03-.036.044l-.009.006a2.851 2.851 0 0 0 .036 3.99l8.649 8.648a2.854 2.854 0 0 0 4.032 0 2.855 2.855 0 0 0 0-4.032l-4.967-4.967a1.333 1.333 0 1 1 1.886-1.885l4.966 4.966a5.524 5.524 0 0 1 0 7.804 5.5 5.5 0 0 1-3.901 1.612 5.503 5.503 0 0 1-3.902-1.613l-8.649-8.649c-1.814-1.814-2.092-4.586-.846-6.7l-2.819-2.82c-4.065 3.622-9.417 5.83-15.277 5.83C10.313 46.013 0 35.699 0 23.022S10.313.032 22.99.032zm0 43.315c11.207 0 20.324-9.117 20.324-20.323 0-11.207-9.117-20.324-20.324-20.324-11.206-.001-20.323 9.116-20.323 20.323s9.117 20.324 20.323 20.324z"/>
        <path d="M36.827 17.253a15.028 15.028 0 0 0-1.69-3.006 1.334 1.334 0 0 1 2.159-1.565 17.63 17.63 0 0 1 1.99 3.542 1.333 1.333 0 1 1-2.46 1.03zM33.079 11.531c-.29 0-.58-.093-.825-.286A14.824 14.824 0 0 0 22.99 8.03a1.334 1.334 0 0 1 0-2.666c4 0 7.773 1.309 10.915 3.786a1.334 1.334 0 0 1-.826 2.38zM27.876 22.779c0 2.705-2.2 4.906-4.906 4.906a4.912 4.912 0 0 1-4.907-4.906 4.912 4.912 0 0 1 4.907-4.907 4.912 4.912 0 0 1 4.906 4.907zm-7.146 0a2.242 2.242 0 0 0 2.24 2.239 2.242 2.242 0 0 0 2.24-2.24 2.243 2.243 0 0 0-2.24-2.24 2.243 2.243 0 0 0-2.24 2.24zM27.912 30.898a1.33 1.33 0 0 1 1.59.93 5.444 5.444 0 0 1 2.368-.556h2.46c1.258 0 2.489.441 3.466 1.242a1.333 1.333 0 0 1-1.69 2.062 2.777 2.777 0 0 0-1.776-.638h-2.46a2.8 2.8 0 0 0-2.196 1.07v4.656a1.334 1.334 0 0 1-2.667 0v-6.497c0-.224-.026-.446-.078-.66a1.332 1.332 0 0 1 .983-1.609zM17.603 36.917c.736 0 1.333.598 1.333 1.334v1.414a1.334 1.334 0 0 1-2.667 0V38.25c0-.737.598-1.334 1.334-1.334zM12.84 20.915a4.912 4.912 0 0 1 4.907 4.906 4.912 4.912 0 0 1-4.906 4.906 4.912 4.912 0 0 1-4.907-4.906 4.912 4.912 0 0 1 4.907-4.906zm0 7.146a2.242 2.242 0 0 0 2.24-2.24 2.243 2.243 0 0 0-2.24-2.24 2.242 2.242 0 0 0-2.24 2.24 2.242 2.242 0 0 0 2.24 2.24z"/>
        <path d="M14.067 30.74a5.47 5.47 0 0 1 2.514.625c.748-2.134 2.778-3.672 5.164-3.672h2.448c.894 0 1.782.22 2.568.636a1.334 1.334 0 0 1-1.248 2.357 2.787 2.787 0 0 0-1.32-.326h-2.448a2.811 2.811 0 0 0-2.808 2.808v1.747a1.334 1.334 0 0 1-2.666 0v-.438a2.81 2.81 0 0 0-2.203-1.07h-2.454c-.719 0-1.401.271-1.923.763a1.333 1.333 0 1 1-1.828-1.941 5.452 5.452 0 0 1 3.751-1.488h2.453zM38.006 26.352a4.912 4.912 0 0 1-4.907 4.907 4.912 4.912 0 0 1-4.906-4.907 4.912 4.912 0 0 1 4.906-4.906c2.706 0 4.907 2.2 4.907 4.906zm-7.147 0a2.242 2.242 0 0 0 2.24 2.24 2.242 2.242 0 0 0 2.24-2.24 2.242 2.242 0 0 0-2.24-2.24 2.242 2.242 0 0 0-2.24 2.24z"/>
    </g>
</svg>
