<svg width="48" height="48" viewBox="0 0 48 48" fill="none" xmlns="http://www.w3.org/2000/svg">
<path fill-rule="evenodd" clip-rule="evenodd" d="M34.6554 19.3279C34.6554 10.8759 27.7795 4 19.3275 4C10.8759 4 4 10.8764 4 19.3279C4 27.7795 10.8759 34.6558 19.327 34.6558C23.2339 34.6558 26.8021 33.1842 29.512 30.7694L31.3917 32.6491C30.561 34.0589 30.7459 35.9066 31.9557 37.1164L37.7218 42.8825C38.4392 43.5994 39.381 43.9581 40.3232 43.9581C41.2651 43.9581 42.2074 43.5999 42.9243 42.8829C44.3586 41.4486 44.3586 39.1147 42.9243 37.6804L39.613 34.3692C39.2663 34.022 38.7027 34.022 38.356 34.3692C38.0089 34.7163 38.0089 35.279 38.356 35.6261L41.6673 38.9374C42.4082 39.6783 42.4082 40.8846 41.6673 41.6255C40.9259 42.3669 39.7201 42.3665 38.9792 41.6255L33.2127 35.8599C32.4802 35.1274 32.4744 33.9434 33.1891 33.2002C33.1909 33.1984 33.1931 33.1975 33.1949 33.1958C33.2001 33.1905 33.2043 33.1849 33.2086 33.1793L33.2086 33.1793C33.2119 33.1749 33.2152 33.1705 33.2189 33.1664C33.8491 32.5415 34.8443 32.4366 35.5883 32.9184C35.7003 32.9909 35.8057 33.0758 35.9004 33.1709L36.7075 33.978C36.8813 34.1514 37.1084 34.238 37.336 34.238C37.564 34.238 37.7911 34.1514 37.9649 33.9776C38.312 33.63 38.312 33.0673 37.9649 32.7202L37.1582 31.9139C36.9755 31.7308 36.7728 31.5663 36.5555 31.4254C35.3563 30.649 33.8229 30.6601 32.6384 31.381L30.7694 29.512C33.1842 26.8025 34.6554 23.2343 34.6554 19.3279ZM32.8778 19.3284C32.8778 26.7994 26.7993 32.878 19.3278 32.878C11.8567 32.878 5.77817 26.7994 5.77817 19.3279C5.77817 11.8564 11.8567 5.77787 19.3278 5.77831C26.7993 5.77831 32.8778 11.8569 32.8778 19.3284ZM27.4261 13.4774C27.8781 14.101 28.2568 14.7757 28.5528 15.4819C28.6955 15.8224 29.0253 16.0277 29.3729 16.0282C29.4871 16.0282 29.6036 16.006 29.7156 15.9588C30.1685 15.7691 30.3823 15.2486 30.1925 14.7957C29.8445 13.9627 29.3978 13.1685 28.8657 12.4342C28.5777 12.0369 28.0212 11.9484 27.6243 12.236C27.227 12.524 27.1381 13.08 27.4261 13.4774ZM26.0532 11.6671C25.8603 11.6671 25.6665 11.6048 25.5034 11.4759C23.7255 10.0745 21.5903 9.3336 19.3271 9.3336C18.8364 9.3336 18.4381 8.93535 18.4381 8.44466C18.4381 7.95397 18.8364 7.55573 19.3271 7.55573C21.9934 7.55573 24.5096 8.42866 26.6039 10.0799C26.9892 10.3839 27.0555 10.9426 26.7515 11.3284C26.5763 11.551 26.3159 11.6671 26.0532 11.6671ZM18.2273 23.1966L13.8483 17.5H24.1511L19.7721 23.1966V28.2095L18.2273 27.3597V23.1966ZM13.0917 15.5C12.3618 15.5 11.8492 15.9784 11.6343 16.4878C11.4204 16.9951 11.4415 17.6506 11.8477 18.1791L16.2273 23.8765V27.5493C16.2273 28.1253 16.5228 28.7048 17.0719 29.0068L19.4352 30.3067C19.9881 30.6109 20.6047 30.5347 21.0542 30.2291C21.4958 29.9288 21.7721 29.4181 21.7721 28.8492V23.8765L26.1517 18.1791C26.558 17.6506 26.5791 16.9952 26.3651 16.4878C26.1503 15.9784 25.6376 15.5 24.9078 15.5H13.0917Z" />
</svg>
